<svg xmlns="http://www.w3.org/2000/svg" width="187.17" height="136.942" viewBox="0 0 187.17 136.942"><path id="layout_builder_doodle" data-name="layout builder doodle" d="M1136.9-562.953a39.937,39.937,0,0,0-23.107-5.769c-9.584.548-18.071,4.924-22.7,11.7-4.123,6.037-4.9,13.533-2.245,21.677a102.6,102.6,0,0,0,5.073,12.72c2.841,6.112,3.818,8.227,1.334,21.24-.189.059-.386.109-.563.184-2.472,1.043-3.354,2.747-4.749,7.336-.319,1.053-.654,1.948-.949,2.737-.9,2.415-1.838,4.913,1.248,6.6.153.084.356.2.58.326.128,2.8,2.552,6.053,6.194,8.134a9.342,9.342,0,0,0,4.678,1.4,9.627,9.627,0,0,0,4.686-1.411,8.3,8.3,0,0,0,2.624.585,2.791,2.791,0,0,0,.511-.043c3.707-.685,6.883-7.261,7.582-10.667l0-.014c0-.021.01-.044.014-.064a17.082,17.082,0,0,1,.7-2.286c.6-1.679,1.391-3.929.438-5.817a27.263,27.263,0,0,1,14.383-16.327c9.829-4.462,20.431-15.42,17.956-31.616A29.015,29.015,0,0,0,1136.9-562.953Zm-38.4,84.283a11.631,11.631,0,0,1-3.675-3.236c3.147,1.783,5.683,3.152,7.717,4.152A5.666,5.666,0,0,1,1098.5-478.67Zm10.488.178c-1.331.117-6.456-2.419-15.267-7.5-.906-.522-1.617-.933-2.045-1.166-.649-.355-.771-.429-.245-1.909,1.654-1.134,4.412.042,6.489,1.273a46.561,46.561,0,0,0,4.779,2.318c3.411,1.507,7.231,3.2,8.282,5.314A4.264,4.264,0,0,1,1108.99-478.492Zm3.727-4.433c-1.942-2.26-5.413-3.8-8.8-5.3a44.813,44.813,0,0,1-4.461-2.154c-2.875-1.705-5.092-2.228-6.793-2.134.051-.16.1-.315.153-.481.146-.482.281-.907.411-1.3a8.206,8.206,0,0,1,5.71.827,51.4,51.4,0,0,0,5.026,1.954c3.886,1.367,8.258,2.906,10.072,5.239A16.964,16.964,0,0,1,1112.717-482.925Zm2.27-6.651-.007.022c-2.584-2.162-6.483-3.539-10.025-4.785a49.828,49.828,0,0,1-4.717-1.825,12.177,12.177,0,0,0-5.639-1.311,2.549,2.549,0,0,1,1.258-.958,5.678,5.678,0,0,1,2.176-.357c.309,0,.634.017.968.045a66.259,66.259,0,0,1,9.244,2.385c2.067.746,3.943,1.511,5.26,2.048l.611.249c.235.106.472.224.708.334C1116.056-493.029,1115.905-492.151,1114.987-489.576Zm-3.458-40.868a8.907,8.907,0,0,0,4.9,1.627,9.5,9.5,0,0,0,2.307-.218l.074.058a17.675,17.675,0,0,0,4.4,2.876c-3.312,6.523-9.826,22.386-11.9,27.637-.789-.3-1.565-.571-2.318-.822a53.792,53.792,0,0,0-6.2-1.857c-.269-5.773,4.263-21.527,7.476-27Q1110.954-529.361,1111.529-530.444Zm-.953-9.033a2.518,2.518,0,0,1,1.2-1.7c.216-.054.349-.048.347-.078.063.128.49,1.259-1.3,5.414A5.448,5.448,0,0,1,1110.576-539.477Zm9.306,5.985a7.336,7.336,0,0,1,2.969-3.9,5.6,5.6,0,0,1-1.64,3.8,5.889,5.889,0,0,1-1.371.991A2.33,2.33,0,0,1,1119.882-533.492Zm11.512,20.047a30.48,30.48,0,0,0-15.579,16.859c-.133-.061-.264-.117-.4-.178-.047-.019-.085-.042-.133-.061l-.055-.023c-.382-.172-.761-.34-1.138-.5,2.092-5.285,8.966-22.02,12.037-27.877a8.917,8.917,0,0,0,4.549-.429,8.614,8.614,0,0,0,5.433-6.53,4,4,0,0,0-1.442-3.931,3.992,3.992,0,0,0-3.261-.81c-2.335.507-3.838,3.156-5.578,6.223-.369.65-.748,1.319-1.144,1.979a13.275,13.275,0,0,1-2.778-1.615,8.709,8.709,0,0,0,1.4-1.111c2.088-2.047,3.1-5.5,2.207-7.54a2.456,2.456,0,0,0-2.442-1.575c-2.047.1-5.122,3.132-5.982,5.9a5.479,5.479,0,0,0-.167,2.852c-.137,0-.273.006-.407,0a6.032,6.032,0,0,1-3.62-1.349c3.085-6.533,2.462-8.78,1.606-9.909a3.166,3.166,0,0,0-3.461-1.01,5.193,5.193,0,0,0-3.34,3.738,8.589,8.589,0,0,0,1.571,7.742c-.462.894-1,1.876-1.612,2.955-3.2,5.462-7.871,20.711-7.882,27.989-.519-.094-.984-.172-1.38-.233,2.4-13.033,1.218-15.581-1.763-21.993a100.039,100.039,0,0,1-4.942-12.385c-2.354-7.226-1.708-13.815,1.871-19.055,4.048-5.927,11.864-9.912,20.4-10.4,19.538-1.119,31.721,11.151,33.66,23.851C1150.488-523.129,1134.607-514.9,1131.394-513.445Zm-3.6-14.653c.218-.378.432-.754.642-1.124,1.21-2.133,2.582-4.55,3.606-4.773a.531.531,0,0,1,.117-.013,1.331,1.331,0,0,1,.747.321c.253.183.284.692.229,1.107a5.58,5.58,0,0,1-3.523,4.119A5.66,5.66,0,0,1,1127.8-528.1Zm38.876-2.586c-.029-.006-2.993-.557-5.42-1.118a1.5,1.5,0,0,0-1.8,1.123,1.5,1.5,0,0,0,1.124,1.8c2.491.577,5.425,1.122,5.549,1.145a1.438,1.438,0,0,0,.275.026,1.5,1.5,0,0,0,1.473-1.227A1.5,1.5,0,0,0,1166.674-530.684Zm4-16.548a1.5,1.5,0,0,0-1.853-1.032,43.87,43.87,0,0,1-6.74.541,1.5,1.5,0,0,0-1.43,1.565,1.5,1.5,0,0,0,1.5,1.433h.068c6.092-.272,7.062-.549,7.426-.652A1.5,1.5,0,0,0,1170.67-547.232Zm-19.922-16.137a1.5,1.5,0,0,0-.421,2.079,1.5,1.5,0,0,0,1.251.671,1.494,1.494,0,0,0,.828-.25c2.085-1.383,4.676-3.152,4.676-3.152l-1.691-2.477S1152.816-564.741,1150.748-563.369Zm-12.667-7.89a1.5,1.5,0,0,0,1.109-.489,47.041,47.041,0,0,0,4.023-4.928,1.5,1.5,0,0,0-.421-2.079,1.5,1.5,0,0,0-2.079.421,43.971,43.971,0,0,1-3.74,4.563,1.5,1.5,0,0,0,.1,2.119A1.493,1.493,0,0,0,1138.081-571.259ZM1122.7-575.2a1.482,1.482,0,0,0,.334.038,1.5,1.5,0,0,0,1.462-1.167c.7-3.079,1.21-6.617,1.232-6.766a1.5,1.5,0,0,0-1.274-1.7,1.5,1.5,0,0,0-1.7,1.273c-.005.035-.512,3.567-1.187,6.523A1.5,1.5,0,0,0,1122.7-575.2Zm-18.5-1.994a1.5,1.5,0,0,0,1.465,1.188,1.471,1.471,0,0,0,.315-.033,1.5,1.5,0,0,0,1.154-1.78c-.486-2.279-1.011-4.719-1.011-4.719a1.5,1.5,0,0,0-1.783-1.15,1.5,1.5,0,0,0-1.151,1.782S1103.716-579.468,1104.2-577.193Zm-15.583,10.913a1.5,1.5,0,0,0-.106-2.119c-2.058-1.861-4.186-3.959-4.207-3.98a1.5,1.5,0,0,0-2.121.015,1.5,1.5,0,0,0,.013,2.121c.022.021,2.2,2.163,4.3,4.069a1.493,1.493,0,0,0,1.006.388A1.5,1.5,0,0,0,1088.618-566.28Zm-29.568,77.2a16.934,16.934,0,0,0-13.981.52,1.461,1.461,0,0,0,.165,2.62,4.831,4.831,0,0,0-2.82,3.4c-.556,2.381.656,4.529,2.458,6.022a29.141,29.141,0,0,0,7.141,4,16.518,16.518,0,0,0,8.092,1.606,10.029,10.029,0,0,0,6.363-2.906,6.779,6.779,0,0,0,1.159-7.111C1066.2-484.848,1062.841-487.584,1059.05-489.079Zm3.4,14.49c-3.891,1.806-8.219-.057-11.737-1.862-1.778-.913-4.137-1.915-5.137-3.764-.609-1.127-.2-3.015,1.306-3.128,1.753-.132,1.908-2.654.44-2.967,5.277-2.311,12.424-.685,16.046,3.8a7.748,7.748,0,0,1,1.8,4.19C1065.269-476.526,1063.964-475.293,1062.446-474.589Zm-47.574,6.332a1.529,1.529,0,0,0-1.5,1.5,1.516,1.516,0,0,0,1.5,1.5,7.445,7.445,0,0,1,2.735.324,7.1,7.1,0,0,1,2.46,1.194l.061.048c.087.073.173.146.257.223q.242.217.461.458c.09.1.179.2.262.307l.04.063c.14.225.275.448.4.68.018.033.067.138.085.174.026.068.053.136.076.205a5,5,0,0,1,.174.66c0,.012,0,.026,0,.035,0,.137.014.272.011.409,0,.091-.01.182-.014.273,0,.033,0,.052,0,.07s-.012.039-.021.074c-.058.223-.1.446-.18.665-.019.054-.04.107-.06.161-.016.026-.108.226-.117.244-.1.186-.21.36-.318.538-.018.029-.072.107-.1.147-.07.088-.143.174-.218.256-.155.169-.322.319-.49.474-.011.01-.031.026-.052.042-.078.055-.156.109-.237.16a4.762,4.762,0,0,1-.426.233c-.054.021-.186.077-.214.086-.122.039-.247.063-.37.1l-.045.008c-.083.006-.165.012-.247.013s-.176-.005-.264-.011l-.037-.006c-.126-.037-.254-.069-.38-.106-.01,0-.026-.01-.042-.017-.073-.037-.146-.074-.217-.114-.028-.016-.2-.131-.277-.175-.057-.048-.159-.13-.156-.128-.063-.057-.125-.117-.185-.178-.087-.09-.168-.184-.249-.278l-.008-.012a8.649,8.649,0,0,1-.655-1.146c-.009-.018-.085-.191-.107-.237-.04-.1-.079-.194-.117-.292-.084-.219-.164-.44-.243-.661-.175-.495-.341-.992-.518-1.486a12.975,12.975,0,0,0-1.495-3.129,1.542,1.542,0,0,0-2.053-.538,1.513,1.513,0,0,0-.538,2.052,8.524,8.524,0,0,1,.76,1.32c.006.014.09.2.11.246.042.1.084.206.124.31.1.267.2.537.295.807a30.453,30.453,0,0,0,1.249,3.244,5.607,5.607,0,0,0,5.843,3.45,6.734,6.734,0,0,0,4.99-4.709,6.666,6.666,0,0,0-1.955-6.712A10.83,10.83,0,0,0,1014.872-468.257Zm7.01,7.307c-.02-.113-.01-.066,0,0ZM1017-457.93c.043.058.1.144,0,0Zm1.063.851c-.062-.027-.115-.056,0,0Zm.488.137c.117.009.068.009,0,0Zm-28.816,5.089c.02-.03.045-.062.062-.083a.318.318,0,0,0-.069.09Zm-.455-6.768a4.2,4.2,0,0,0-3.7,1.112,1.453,1.453,0,0,0-.231.325,1.331,1.331,0,0,0-.7.015,1.538,1.538,0,0,0-1.048,1.845,11.947,11.947,0,0,0,4.316,7.037,1.589,1.589,0,0,0,1.818.235,6.652,6.652,0,0,0,3.73-5.966,4.753,4.753,0,0,0-1.434-3.223A5.159,5.159,0,0,0,989.276-458.621Zm1.175,5.148c-.02.1-.036.192-.06.287-.043.167-.139.352-.172.523l-.029.06c-.053.106-.11.211-.17.313-.069.118-.143.233-.221.346l-.006.008c.017-.015.019-.01-.039.058l-.023.025c-.008.012-.02.025-.021.035a.1.1,0,0,1,.014-.028,6.628,6.628,0,0,1-.466.5c-.047.045-.1.087-.147.13-.144-.14-.29-.277-.426-.426q-.168-.185-.328-.376c-.007-.009-.041-.045-.073-.081-.008-.013-.012-.02-.035-.052-.186-.254-.364-.512-.529-.78-.156-.252-.3-.51-.435-.774-.066-.132-.131-.265-.192-.4l-.01-.023.006.026a.4.4,0,0,0-.024-.067l.018.041a.6.6,0,0,0-.042-.1c-.016-.039-.032-.076-.034-.082-.084-.217-.152-.438-.221-.659a1.419,1.419,0,0,0,.91-.417c.034-.036.1-.086.144-.133.059-.036.123-.067.183-.1l.007,0c.07-.023.142-.042.214-.058.142,0,.293-.014.434-.01h.012c.063.012.125.024.186.039.08.019.158.042.236.067.03.009.108.039.163.059l.051.025c.074.037.147.077.218.12s.155.1.232.149l0,0c.121.111.235.224.347.344.042.068.09.132.129.2.021.036.069.138.091.181l.009.023c.028.088.051.177.072.267.007.03.013.061.019.092-.022.168.023.383.013.551A.951.951,0,0,1,990.451-453.473Zm0-.641.01.047C990.495-453.894,990.455-454.024,990.448-454.114Z" transform="translate(-983.558 584.807)" fill="#111"></path></svg>