<svg id="Layer_1" data-name="Layer 1" xmlns="http://www.w3.org/2000/svg" viewBox="0 0 948.38 165.68"><defs><style>.cls-1{fill:#ff11e4;}.cls-2{fill:#fe12e4;}.cls-3{fill:#fd13e4;}.cls-4{fill:#fc14e4;}.cls-5{fill:#fb16e5;}.cls-6{fill:#fa17e5;}.cls-7{fill:#f918e5;}.cls-8{fill:#f819e5;}.cls-9{fill:#f71ae5;}.cls-10{fill:#f71be5;}.cls-11{fill:#f61ce6;}.cls-12{fill:#f51de6;}.cls-13{fill:#f41ee6;}.cls-14{fill:#f31fe6;}.cls-15{fill:#f220e6;}.cls-16{fill:#f221e6;}.cls-17{fill:#f122e6;}.cls-18{fill:#f023e6;}.cls-19{fill:#ef24e7;}.cls-20{fill:#ee25e7;}.cls-21{fill:#ed26e7;}.cls-22{fill:#ed27e7;}.cls-23{fill:#ec28e7;}.cls-24{fill:#eb29e7;}.cls-25{fill:#ea2ae7;}.cls-26{fill:#e92be8;}.cls-27{fill:#e82ce8;}.cls-28{fill:#e82de8;}.cls-29{fill:#e72ee8;}.cls-30{fill:#e62fe8;}.cls-31{fill:#e530e8;}.cls-32{fill:#e431e8;}.cls-33{fill:#e332e9;}.cls-34{fill:#e333e9;}.cls-35{fill:#e234e9;}.cls-36{fill:#e135e9;}.cls-37{fill:#e036e9;}.cls-38{fill:#df37e9;}.cls-39{fill:#de38e9;}.cls-40{fill:#de39e9;}.cls-41{fill:#dd3aea;}.cls-42{fill:#dc3bea;}.cls-43{fill:#db3cea;}.cls-44{fill:#da3dea;}.cls-45{fill:#d93eea;}.cls-46{fill:#d93fea;}.cls-47{fill:#d840ea;}.cls-48{fill:#d741eb;}.cls-49{fill:#d642eb;}.cls-50{fill:#d543eb;}.cls-51{fill:#d444eb;}.cls-52{fill:#d345eb;}.cls-53{fill:#d346eb;}.cls-54{fill:#d247eb;}.cls-55{fill:#d148ec;}.cls-56{fill:#d049ec;}.cls-57{fill:#cf4aec;}.cls-58{fill:#ce4bec;}.cls-59{fill:#ce4cec;}.cls-60{fill:#cd4dec;}.cls-61{fill:#cc4eec;}.cls-62{fill:#cb4fec;}.cls-63{fill:#ca50ed;}.cls-64{fill:#c951ed;}.cls-65{fill:#c952ed;}.cls-66{fill:#c853ed;}.cls-67{fill:#c754ed;}.cls-68{fill:#c655ed;}.cls-69{fill:#c556ed;}.cls-70{fill:#c457ee;}.cls-71{fill:#c458ee;}.cls-72{fill:#c359ee;}.cls-73{fill:#c25aee;}.cls-74{fill:#c15bee;}.cls-75{fill:#c05cee;}.cls-76{fill:#bf5dee;}.cls-77{fill:#bf5eef;}.cls-78{fill:#be5fef;}.cls-79{fill:#bd60ef;}.cls-80{fill:#bc61ef;}.cls-81{fill:#bb62ef;}.cls-82{fill:#ba63ef;}.cls-83{fill:#ba64ef;}.cls-84{fill:#b965ef;}.cls-85{fill:#b866f0;}.cls-86{fill:#b767f0;}.cls-87{fill:#b668f0;}.cls-88{fill:#b569f0;}.cls-89{fill:#b56af0;}.cls-90{fill:#b46bf0;}.cls-91{fill:#b36cf0;}.cls-92{fill:#b26df1;}.cls-93{fill:#b16ef1;}.cls-94{fill:#b06ff1;}.cls-95{fill:#af70f1;}.cls-96{fill:#af71f1;}.cls-97{fill:#ae72f1;}.cls-98{fill:#ad73f1;}.cls-99{fill:#ac74f2;}.cls-100{fill:#ab75f2;}.cls-101{fill:#aa76f2;}.cls-102{fill:#aa77f2;}.cls-103{fill:#a978f2;}.cls-104{fill:#a879f2;}.cls-105{fill:#a77af2;}.cls-106{fill:#a67bf3;}.cls-107{fill:#a57cf3;}.cls-108{fill:#a57df3;}.cls-109{fill:#a47ef3;}.cls-110{fill:#a37ff3;}.cls-111{fill:#a280f3;}.cls-112{fill:#a181f3;}.cls-113{fill:#a082f3;}.cls-114{fill:#a083f4;}.cls-115{fill:#9f84f4;}.cls-116{fill:#9e85f4;}.cls-117{fill:#9d86f4;}.cls-118{fill:#9c87f4;}.cls-119{fill:#9b88f4;}.cls-120{fill:#9b89f4;}.cls-121{fill:#9a8af5;}.cls-122{fill:#998bf5;}.cls-123{fill:#988cf5;}.cls-124{fill:#978df5;}.cls-125{fill:#968ef5;}.cls-126{fill:#968ff5;}.cls-127{fill:#9590f5;}.cls-128{fill:#9491f6;}.cls-129{fill:#9392f6;}.cls-130{fill:#9293f6;}.cls-131{fill:#9194f6;}.cls-132{fill:#9195f6;}.cls-133{fill:#9096f6;}.cls-134{fill:#8f97f6;}.cls-135{fill:#8e98f6;}.cls-136{fill:#8d99f7;}.cls-137{fill:#8c9af7;}.cls-138{fill:#8c9bf7;}.cls-139{fill:#8b9cf7;}.cls-140{fill:#8a9df7;}.cls-141{fill:#899ef7;}.cls-142{fill:#889ff7;}.cls-143{fill:#87a0f8;}.cls-144{fill:#86a1f8;}.cls-145{fill:#86a2f8;}.cls-146{fill:#85a3f8;}.cls-147{fill:#84a4f8;}.cls-148{fill:#83a5f8;}.cls-149{fill:#82a6f8;}.cls-150{fill:#81a7f9;}.cls-151{fill:#81a8f9;}.cls-152{fill:#80a9f9;}.cls-153{fill:#7faaf9;}.cls-154{fill:#7eabf9;}.cls-155{fill:#7dacf9;}.cls-156{fill:#7cadf9;}.cls-157{fill:#7caef9;}.cls-158{fill:#7baffa;}.cls-159{fill:#7ab0fa;}.cls-160{fill:#79b1fa;}.cls-161{fill:#78b2fa;}.cls-162{fill:#77b3fa;}.cls-163{fill:#77b4fa;}.cls-164{fill:#76b5fa;}.cls-165{fill:#75b6fb;}.cls-166{fill:#74b7fb;}.cls-167{fill:#73b8fb;}.cls-168{fill:#72b9fb;}.cls-169{fill:#72bafb;}.cls-170{fill:#71bbfb;}.cls-171{fill:#70bcfb;}.cls-172{fill:#6fbdfc;}.cls-173{fill:#6ebefc;}.cls-174{fill:#6dbffc;}.cls-175{fill:#6dc0fc;}.cls-176{fill:#6cc1fc;}.cls-177{fill:#6bc2fc;}.cls-178{fill:#6ac3fc;}.cls-179{fill:#69c4fc;}.cls-180{fill:#68c5fd;}.cls-181{fill:#68c6fd;}.cls-182{fill:#67c7fd;}.cls-183{fill:#66c8fd;}.cls-184{fill:#65c9fd;}.cls-185{fill:#64cafd;}.cls-186{fill:#63cbfd;}.cls-187{fill:#63ccfe;}.cls-188{fill:#62cdfe;}.cls-189{fill:#61cefe;}</style></defs><circle class="cls-1" cx="801.66" cy="146.1" r="13.91"/><circle class="cls-2" cx="800.51" cy="146.46" r="13.91"/><circle class="cls-3" cx="799.34" cy="146.69" r="13.91"/><circle class="cls-4" cx="798.15" cy="146.78" r="13.91"/><circle class="cls-5" cx="795.68" cy="146.57" r="13.91"/><circle class="cls-6" cx="794.42" cy="146.28" r="13.91"/><circle class="cls-7" cx="793.13" cy="145.87" r="13.91"/><circle class="cls-8" cx="791.82" cy="145.35" r="13.91"/><circle class="cls-9" cx="790.49" cy="144.72" r="13.91"/><circle class="cls-10" cx="789.14" cy="143.98" r="13.91"/><circle class="cls-11" cx="787.78" cy="143.14" r="13.91"/><circle class="cls-12" cx="786.39" cy="142.2" r="13.91"/><circle class="cls-13" cx="784.98" cy="141.17" r="13.91"/><circle class="cls-14" cx="783.56" cy="140.05" r="13.91"/><circle class="cls-15" cx="782.12" cy="138.84" r="13.91"/><circle class="cls-16" cx="780.67" cy="137.56" r="13.91"/><circle class="cls-17" cx="779.2" cy="136.19" r="13.91"/><circle class="cls-18" cx="777.72" cy="134.75" r="13.91"/><circle class="cls-19" cx="776.22" cy="133.25" r="13.91"/><circle class="cls-20" cx="774.71" cy="131.68" r="13.91"/><circle class="cls-21" cx="773.19" cy="130.05" r="13.91"/><circle class="cls-22" cx="771.66" cy="128.36" r="13.91"/><circle class="cls-23" cx="770.11" cy="126.62" r="13.91"/><circle class="cls-24" cx="768.56" cy="124.83" r="13.91"/><circle class="cls-25" cx="766.99" cy="123" r="13.91"/><circle class="cls-26" cx="765.42" cy="121.13" r="13.91"/><circle class="cls-27" cx="763.84" cy="119.22" r="13.91"/><circle class="cls-28" cx="762.25" cy="117.29" r="13.91"/><circle class="cls-29" cx="760.66" cy="115.32" r="13.91"/><circle class="cls-30" cx="759.06" cy="113.33" r="13.91"/><circle class="cls-31" cx="757.45" cy="111.32" r="13.91"/><circle class="cls-32" cx="755.84" cy="109.3" r="13.91"/><circle class="cls-33" cx="754.23" cy="107.26" r="13.91"/><circle class="cls-34" cx="752.61" cy="105.22" r="13.91"/><circle class="cls-35" cx="750.99" cy="103.18" r="13.91"/><circle class="cls-36" cx="749.37" cy="101.13" r="13.91"/><circle class="cls-37" cx="747.75" cy="99.1" r="13.91"/><circle class="cls-38" cx="746.13" cy="97.07" r="13.91"/><circle class="cls-39" cx="744.51" cy="95.06" r="13.91"/><circle class="cls-40" cx="742.89" cy="93.06" r="13.91"/><circle class="cls-41" cx="741.27" cy="91.09" r="13.91"/><circle class="cls-42" cx="739.65" cy="89.14" r="13.91"/><circle class="cls-43" cx="738.04" cy="87.22" r="13.91"/><circle class="cls-44" cx="736.43" cy="85.34" r="13.91"/><circle class="cls-45" cx="734.83" cy="83.49" r="13.91"/><circle class="cls-46" cx="733.23" cy="81.69" r="13.91"/><circle class="cls-47" cx="731.64" cy="79.93" r="13.91"/><circle class="cls-48" cx="730.05" cy="78.23" r="13.91"/><circle class="cls-49" cx="728.47" cy="76.58" r="13.91"/><circle class="cls-50" cx="726.9" cy="74.99" r="13.91"/><circle class="cls-51" cx="725.34" cy="73.46" r="13.91"/><circle class="cls-52" cx="723.79" cy="72.01" r="13.91"/><circle class="cls-53" cx="722.25" cy="70.62" r="13.91"/><circle class="cls-54" cx="720.72" cy="69.31" r="13.91"/><circle class="cls-55" cx="719.2" cy="68.07" r="13.91"/><circle class="cls-56" cx="717.69" cy="66.92" r="13.91"/><circle class="cls-57" cx="716.2" cy="65.86" r="13.91"/><circle class="cls-58" cx="714.72" cy="64.9" r="13.91"/><circle class="cls-59" cx="713.25" cy="64.02" r="13.91"/><circle class="cls-60" cx="711.8" cy="63.25" r="13.91"/><circle class="cls-61" cx="710.37" cy="62.59" r="13.91"/><circle class="cls-62" cx="708.95" cy="62.03" r="13.91"/><circle class="cls-63" cx="707.55" cy="61.58" r="13.91"/><circle class="cls-64" cx="706.16" cy="61.26" r="13.91"/><circle class="cls-65" cx="704.8" cy="61.05" r="13.91"/><circle class="cls-66" cx="703.46" cy="60.97" r="13.91"/><circle class="cls-67" cx="702.13" cy="61.01" r="13.91"/><circle class="cls-68" cx="700.83" cy="61.19" r="13.91"/><circle class="cls-69" cx="699.54" cy="61.51" r="13.91"/><circle class="cls-70" cx="698.21" cy="62" r="13.91"/><circle class="cls-71" cx="696.89" cy="62.67" r="13.91"/><circle class="cls-72" cx="695.61" cy="63.48" r="13.91"/><circle class="cls-73" cx="694.38" cy="64.45" r="13.91"/><circle class="cls-74" cx="693.21" cy="65.55" r="13.91"/><circle class="cls-75" cx="692.08" cy="66.79" r="13.91"/><circle class="cls-76" cx="691.01" cy="68.15" r="13.91"/><circle class="cls-77" cx="689.99" cy="69.63" r="13.91"/><circle class="cls-78" cx="689.02" cy="71.22" r="13.91"/><circle class="cls-79" cx="688.11" cy="72.92" r="13.91"/><circle class="cls-80" cx="687.24" cy="74.71" r="13.91"/><circle class="cls-81" cx="686.43" cy="76.6" r="13.91"/><circle class="cls-82" cx="685.67" cy="78.57" r="13.91"/><circle class="cls-83" cx="684.96" cy="80.62" r="13.91"/><circle class="cls-84" cx="684.3" cy="82.74" r="13.91"/><circle class="cls-85" cx="683.7" cy="84.92" r="13.91"/><circle class="cls-86" cx="683.15" cy="87.16" r="13.91"/><circle class="cls-87" cx="682.65" cy="89.45" r="13.91"/><circle class="cls-88" cx="682.21" cy="91.79" r="13.91"/><circle class="cls-89" cx="681.81" cy="94.16" r="13.91"/><circle class="cls-90" cx="681.47" cy="96.56" r="13.91"/><circle class="cls-91" cx="681.19" cy="98.99" r="13.91"/><circle class="cls-92" cx="680.95" cy="101.43" r="13.91"/><circle class="cls-93" cx="680.77" cy="103.88" r="13.91"/><circle class="cls-94" cx="680.64" cy="106.33" r="13.91"/><circle class="cls-95" cx="680.57" cy="108.78" r="13.91"/><circle class="cls-96" cx="680.55" cy="111.22" r="13.91"/><circle class="cls-97" cx="680.58" cy="113.63" r="13.91"/><circle class="cls-98" cx="680.67" cy="116.03" r="13.91"/><circle class="cls-99" cx="680.81" cy="118.39" r="13.91"/><circle class="cls-100" cx="681.01" cy="120.72" r="13.91"/><circle class="cls-101" cx="681.26" cy="122.99" r="13.91"/><circle class="cls-102" cx="681.56" cy="125.22" r="13.91"/><circle class="cls-103" cx="681.92" cy="127.39" r="13.91"/><circle class="cls-104" cx="682.33" cy="129.49" r="13.91"/><circle class="cls-105" cx="682.8" cy="131.52" r="13.91"/><circle class="cls-106" cx="683.32" cy="133.47" r="13.91"/><circle class="cls-107" cx="683.9" cy="135.33" r="13.91"/><circle class="cls-108" cx="684.53" cy="137.1" r="13.91"/><circle class="cls-109" cx="685.21" cy="138.77" r="13.91"/><circle class="cls-110" cx="685.95" cy="140.33" r="13.91"/><circle class="cls-111" cx="686.75" cy="141.78" r="13.91"/><circle class="cls-112" cx="687.6" cy="143.11" r="13.91"/><circle class="cls-113" cx="688.51" cy="144.31" r="13.91"/><circle class="cls-114" cx="689.47" cy="145.38" r="13.91"/><circle class="cls-115" cx="690.49" cy="146.3" r="13.91"/><circle class="cls-116" cx="691.56" cy="147.08" r="13.91"/><circle class="cls-117" cx="692.69" cy="147.7" r="13.91"/><circle class="cls-118" cx="693.79" cy="148.14" r="13.91"/><circle class="cls-119" cx="694.88" cy="148.42" r="13.91"/><circle class="cls-120" cx="696" cy="148.57" r="13.91"/><circle class="cls-121" cx="697.15" cy="148.59" r="13.91"/><circle class="cls-122" cx="698.32" cy="148.49" r="13.91"/><circle class="cls-123" cx="699.53" cy="148.26" r="13.91"/><circle class="cls-124" cx="700.76" cy="147.92" r="13.91"/><circle class="cls-125" cx="702.01" cy="147.47" r="13.91"/><circle class="cls-126" cx="703.29" cy="146.91" r="13.91"/><circle class="cls-127" cx="704.59" cy="146.24" r="13.91"/><circle class="cls-128" cx="705.92" cy="145.47" r="13.91"/><circle class="cls-129" cx="707.27" cy="144.61" r="13.91"/><circle class="cls-130" cx="708.64" cy="143.65" r="13.91"/><circle class="cls-131" cx="710.03" cy="142.6" r="13.91"/><circle class="cls-132" cx="711.44" cy="141.47" r="13.91"/><circle class="cls-133" cx="712.87" cy="140.25" r="13.91"/><circle class="cls-134" cx="714.32" cy="138.95" r="13.91"/><circle class="cls-135" cx="715.78" cy="137.58" r="13.91"/><circle class="cls-136" cx="717.26" cy="136.14" r="13.91"/><circle class="cls-137" cx="718.76" cy="134.64" r="13.91"/><circle class="cls-138" cx="720.27" cy="133.06" r="13.91"/><circle class="cls-139" cx="721.8" cy="131.43" r="13.91"/><circle class="cls-140" cx="723.34" cy="129.75" r="13.91"/><circle class="cls-141" cx="724.9" cy="128.01" r="13.91"/><circle class="cls-142" cx="726.46" cy="126.22" r="13.91"/><circle class="cls-143" cx="728.04" cy="124.39" r="13.91"/><circle class="cls-144" cx="729.63" cy="122.52" r="13.91"/><circle class="cls-145" cx="731.22" cy="120.62" r="13.91"/><circle class="cls-146" cx="732.83" cy="118.68" r="13.91"/><circle class="cls-147" cx="734.44" cy="116.71" r="13.91"/><circle class="cls-148" cx="736.06" cy="114.71" r="13.91"/><circle class="cls-149" cx="737.69" cy="112.7" r="13.91"/><circle class="cls-150" cx="739.32" cy="110.67" r="13.91"/><circle class="cls-151" cx="740.96" cy="108.62" r="13.91"/><circle class="cls-152" cx="742.6" cy="106.56" r="13.91"/><circle class="cls-153" cx="744.25" cy="104.5" r="13.91"/><circle class="cls-154" cx="745.89" cy="102.43" r="13.91"/><circle class="cls-155" cx="747.54" cy="100.37" r="13.91"/><circle class="cls-156" cx="749.19" cy="98.31" r="13.91"/><circle class="cls-157" cx="750.84" cy="96.26" r="13.91"/><circle class="cls-158" cx="752.49" cy="94.23" r="13.91"/><circle class="cls-159" cx="754.14" cy="92.21" r="13.91"/><circle class="cls-160" cx="755.78" cy="90.21" r="13.91"/><circle class="cls-161" cx="757.42" cy="88.23" r="13.91"/><circle class="cls-162" cx="759.06" cy="86.29" r="13.91"/><circle class="cls-163" cx="760.69" cy="84.37" r="13.91"/><circle class="cls-164" cx="762.32" cy="82.49" r="13.91"/><circle class="cls-165" cx="763.94" cy="80.65" r="13.91"/><circle class="cls-166" cx="765.55" cy="78.86" r="13.91"/><circle class="cls-167" cx="767.16" cy="77.11" r="13.91"/><circle class="cls-168" cx="768.76" cy="75.41" r="13.91"/><circle class="cls-169" cx="770.35" cy="73.77" r="13.91"/><circle class="cls-170" cx="771.92" cy="72.18" r="13.91"/><circle class="cls-171" cx="773.49" cy="70.66" r="13.91"/><circle class="cls-172" cx="775.05" cy="69.2" r="13.91"/><circle class="cls-173" cx="776.59" cy="67.82" r="13.91"/><circle class="cls-174" cx="778.12" cy="66.5" r="13.91"/><circle class="cls-175" cx="779.63" cy="65.27" r="13.91"/><circle class="cls-176" cx="781.13" cy="64.12" r="13.91"/><circle class="cls-177" cx="782.61" cy="63.05" r="13.91"/><circle class="cls-178" cx="784.08" cy="62.07" r="13.91"/><circle class="cls-179" cx="785.53" cy="61.18" r="13.91"/><circle class="cls-180" cx="786.96" cy="60.39" r="13.91"/><circle class="cls-181" cx="788.37" cy="59.7" r="13.91"/><circle class="cls-182" cx="789.76" cy="59.12" r="13.91"/><circle class="cls-183" cx="791.14" cy="58.64" r="13.91"/><circle class="cls-184" cx="792.49" cy="58.27" r="13.91"/><circle class="cls-185" cx="793.81" cy="58.02" r="13.91"/><circle class="cls-186" cx="795.12" cy="57.89" r="13.91"/><circle class="cls-187" cx="796.4" cy="57.89" r="13.91"/><circle class="cls-188" cx="797.66" cy="58" r="13.91"/><circle class="cls-189" cx="798.89" cy="58.26" r="13.91"/><path d="M52.55,162.29,3.46,10.92H47.57L88.88,142H66.6l43.47-131h39.36l41.08,131H169.1l42.61-131h40.87L203.49,162.29H157.64l-35-111.37h12.11L98.61,162.29Z"/><path d="M319,164.24q-21,0-36.44-7.9a59.23,59.23,0,0,1-24-21.62,57.48,57.48,0,0,1-8.54-31q0-17.73,8.33-31.47a58.3,58.3,0,0,1,22.92-21.51q14.59-7.78,33.19-7.79a68.06,68.06,0,0,1,31.46,7.25,57.25,57.25,0,0,1,22.71,20.76q8.54,13.51,8.54,33,0,2.17-.21,5c-.15,1.87-.29,3.6-.44,5.19H283.71V92.44h70.93L339.07,98.5a27.37,27.37,0,0,0-2.92-13.73,22.87,22.87,0,0,0-8.54-9.19,24.26,24.26,0,0,0-12.76-3.25,25.88,25.88,0,0,0-13.19,3.25,21,21,0,0,0-8.54,9.19,31.22,31.22,0,0,0-2.92,13.94V105a29.7,29.7,0,0,0,3.57,14.93A23.68,23.68,0,0,0,304,129.53a35.34,35.34,0,0,0,16,3.35A39.3,39.3,0,0,0,335,130.39a44.81,44.81,0,0,0,12.11-7.67l21.41,22.7a53.77,53.77,0,0,1-20.54,14Q335.61,164.23,319,164.24Z"/><path d="M396.16,162.29V1.84h41.09V64.76l-2.16,38.71.43,38.71v20.11Zm73.74,2q-15.78,0-26.27-6.49T428,137.85q-5.19-13.4-5.19-34.16t5.51-34.17q5.52-13.41,16.11-20t25.52-6.6A57.74,57.74,0,0,1,499,50.38a54.85,54.85,0,0,1,20.76,21q7.66,13.52,7.67,32.33,0,18.6-7.67,32.11a54.85,54.85,0,0,1-20.76,21A57.74,57.74,0,0,1,469.9,164.24Zm-8.65-32.66a24.12,24.12,0,0,0,12.44-3.24,23.48,23.48,0,0,0,8.86-9.62,31.8,31.8,0,0,0,3.35-15q0-9.3-3.35-15.36a24.19,24.19,0,0,0-42.6,0q-3.36,6.06-3.35,15.36a31.8,31.8,0,0,0,3.35,15,23.43,23.43,0,0,0,8.87,9.62A24.06,24.06,0,0,0,461.25,131.58Z"/><path d="M580.84,164.24q-13.85,0-23.68-4.76a34.72,34.72,0,0,1-14.92-13,33.81,33.81,0,0,1-5.09-18.16,32.28,32.28,0,0,1,5.52-18.81q5.52-8,17.08-12.22t29.52-4.22H617v21.63H594.89q-9.95,0-13.95,3a10.2,10.2,0,0,0-4,8.65,10.54,10.54,0,0,0,4.11,8.54q4.11,3.36,11.25,3.36a23.4,23.4,0,0,0,12.43-3.36,18.48,18.48,0,0,0,7.89-10.27l5.63,15.14Q615,151.92,605.6,158.07T580.84,164.24Zm34.6-2V140.45L612.62,135V94.82q0-9.73-5.94-15t-18.92-5.3a55.92,55.92,0,0,0-17.2,2.82,53.56,53.56,0,0,0-14.81,7.13L542.13,56.76A81.66,81.66,0,0,1,566,46.6a108.7,108.7,0,0,1,27.79-3.68q28.55,0,44.22,13.19T653.71,97.2v65.09Z"/><path d="M888.76,164.24q-21,0-36.44-7.9a59.23,59.23,0,0,1-24-21.62,57.48,57.48,0,0,1-8.54-31q0-17.73,8.32-31.47A58.4,58.4,0,0,1,851,50.71q14.6-7.78,33.19-7.79a68.13,68.13,0,0,1,31.47,7.25,57.29,57.29,0,0,1,22.7,20.76q8.54,13.51,8.54,33,0,2.17-.21,5c-.15,1.87-.29,3.6-.44,5.19H853.51V92.44h70.93L908.87,98.5A27.26,27.26,0,0,0,906,84.77a22.87,22.87,0,0,0-8.54-9.19,24.26,24.26,0,0,0-12.76-3.25,25.85,25.85,0,0,0-13.19,3.25,21,21,0,0,0-8.54,9.19A31.22,31.22,0,0,0,860,98.71V105a29.7,29.7,0,0,0,3.57,14.93,23.68,23.68,0,0,0,10.27,9.62,35.34,35.34,0,0,0,16,3.35,39.3,39.3,0,0,0,14.92-2.49,44.81,44.81,0,0,0,12.11-7.67l21.41,22.7a53.77,53.77,0,0,1-20.54,14Q905.41,164.23,888.76,164.24Z"/></svg>